<svg id="visual" viewBox="0 0 1562 355" width="1562" height="355" xmlns="http://www.w3.org/2000/svg" xmlns:xlink="http://www.w3.org/1999/xlink" version="1.1"><rect x="0" y="0" width="1562" height="355" fill="#ffffff"></rect><path d="M0 208L37.2 216.7C74.3 225.3 148.7 242.7 223 245.8C297.3 249 371.7 238 446 237.2C520.3 236.3 594.7 245.7 669.2 244.8C743.7 244 818.3 233 892.8 229.3C967.3 225.7 1041.7 229.3 1116 234.3C1190.3 239.3 1264.7 245.7 1339 245C1413.3 244.3 1487.7 236.7 1524.8 232.8L1562 229L1562 356L1524.8 356C1487.7 356 1413.3 356 1339 356C1264.7 356 1190.3 356 1116 356C1041.7 356 967.3 356 892.8 356C818.3 356 743.7 356 669.2 356C594.7 356 520.3 356 446 356C371.7 356 297.3 356 223 356C148.7 356 74.3 356 37.2 356L0 356Z" fill="#074574"></path><path d="M0 250L37.2 250.3C74.3 250.7 148.7 251.3 223 255.8C297.3 260.3 371.7 268.7 446 272.7C520.3 276.7 594.7 276.3 669.2 274.8C743.7 273.3 818.3 270.7 892.8 271.3C967.3 272 1041.7 276 1116 276.5C1190.3 277 1264.7 274 1339 270.3C1413.3 266.7 1487.7 262.3 1524.8 260.2L1562 258L1562 356L1524.8 356C1487.7 356 1413.3 356 1339 356C1264.7 356 1190.3 356 1116 356C1041.7 356 967.3 356 892.8 356C818.3 356 743.7 356 669.2 356C594.7 356 520.3 356 446 356C371.7 356 297.3 356 223 356C148.7 356 74.3 356 37.2 356L0 356Z" fill="#735091"></path><path d="M0 296L37.2 297C74.3 298 148.7 300 223 296.7C297.3 293.3 371.7 284.7 446 281.7C520.3 278.7 594.7 281.3 669.2 279.5C743.7 277.7 818.3 271.3 892.8 273.2C967.3 275 1041.7 285 1116 289.2C1190.3 293.3 1264.7 291.7 1339 286.8C1413.3 282 1487.7 274 1524.8 270L1562 266L1562 356L1524.8 356C1487.7 356 1413.3 356 1339 356C1264.7 356 1190.3 356 1116 356C1041.7 356 967.3 356 892.8 356C818.3 356 743.7 356 669.2 356C594.7 356 520.3 356 446 356C371.7 356 297.3 356 223 356C148.7 356 74.3 356 37.2 356L0 356Z" fill="#c65689"></path><path d="M0 294L37.2 298.3C74.3 302.7 148.7 311.3 223 311.3C297.3 311.3 371.7 302.7 446 300.5C520.3 298.3 594.7 302.7 669.2 302.8C743.7 303 818.3 299 892.8 298.7C967.3 298.3 1041.7 301.7 1116 305C1190.3 308.3 1264.7 311.7 1339 308.2C1413.3 304.7 1487.7 294.3 1524.8 289.2L1562 284L1562 356L1524.8 356C1487.7 356 1413.3 356 1339 356C1264.7 356 1190.3 356 1116 356C1041.7 356 967.3 356 892.8 356C818.3 356 743.7 356 669.2 356C594.7 356 520.3 356 446 356C371.7 356 297.3 356 223 356C148.7 356 74.3 356 37.2 356L0 356Z" fill="#f97465"></path><path d="M0 322L37.2 324C74.3 326 148.7 330 223 329.2C297.3 328.3 371.7 322.7 446 321.2C520.3 319.7 594.7 322.3 669.2 323C743.7 323.7 818.3 322.3 892.8 322.3C967.3 322.3 1041.7 323.7 1116 325.5C1190.3 327.3 1264.7 329.7 1339 327.5C1413.3 325.3 1487.7 318.7 1524.8 315.3L1562 312L1562 356L1524.8 356C1487.7 356 1413.3 356 1339 356C1264.7 356 1190.3 356 1116 356C1041.7 356 967.3 356 892.8 356C818.3 356 743.7 356 669.2 356C594.7 356 520.3 356 446 356C371.7 356 297.3 356 223 356C148.7 356 74.3 356 37.2 356L0 356Z" fill="#fbae3c"></path></svg>