<svg id="visual" viewBox="0 0 1562 1062" width="1562" height="1062" xmlns="http://www.w3.org/2000/svg" xmlns:xlink="http://www.w3.org/1999/xlink" version="1.1"><rect x="0" y="0" width="1562" height="1062" fill="#074574"></rect><defs><linearGradient id="grad1_0" x1="32%" y1="100%" x2="100%" y2="0%"><stop offset="20.583804143126176%" stop-color="#074574" stop-opacity="1"></stop><stop offset="79.41619585687383%" stop-color="#074574" stop-opacity="1"></stop></linearGradient></defs><defs><linearGradient id="grad2_0" x1="0%" y1="100%" x2="68%" y2="0%"><stop offset="20.583804143126176%" stop-color="#074574" stop-opacity="1"></stop><stop offset="79.41619585687383%" stop-color="#074574" stop-opacity="1"></stop></linearGradient></defs><g transform="translate(1562, 1062)"><path d="M-519.4 0C-473.4 -43.1 -427.4 -86.1 -409 -132.9C-390.5 -179.6 -399.6 -230 -389.1 -282.7C-378.7 -335.4 -348.8 -390.4 -305.3 -420.2C-261.9 -450 -204.9 -454.6 -151.7 -467C-98.6 -479.3 -49.3 -499.4 0 -519.4L0 0Z" fill="#FBAE3C"></path></g><g transform="translate(0, 0)"><path d="M519.4 0C512.7 52.3 506 104.6 494 160.5C482 216.4 464.6 275.9 418.3 303.9C371.9 331.9 296.7 328.4 245.7 338.2C194.7 347.9 167.9 370.8 131 403.2C94.1 435.7 47.1 477.5 0 519.4L0 0Z" fill="#FBAE3C"></path></g></svg>