<svg id="visual" viewBox="0 0 1562 762" width="1562" height="762" xmlns="http://www.w3.org/2000/svg" xmlns:xlink="http://www.w3.org/1999/xlink" version="1.1"><rect x="0" y="0" width="1562" height="762" fill="#FFFFFF"></rect><path d="M0 526L37.2 512.7C74.3 499.3 148.7 472.7 223 471C297.3 469.3 371.7 492.7 446 511C520.3 529.3 594.7 542.7 669.2 545.3C743.7 548 818.3 540 892.8 523.8C967.3 507.7 1041.7 483.3 1116 478.7C1190.3 474 1264.7 489 1339 489C1413.3 489 1487.7 474 1524.8 466.5L1562 459L1562 763L1524.8 763C1487.7 763 1413.3 763 1339 763C1264.7 763 1190.3 763 1116 763C1041.7 763 967.3 763 892.8 763C818.3 763 743.7 763 669.2 763C594.7 763 520.3 763 446 763C371.7 763 297.3 763 223 763C148.7 763 74.3 763 37.2 763L0 763Z" fill="#074574"></path><path d="M0 565L37.2 555C74.3 545 148.7 525 223 528.5C297.3 532 371.7 559 446 566.7C520.3 574.3 594.7 562.7 669.2 553C743.7 543.3 818.3 535.7 892.8 532.5C967.3 529.3 1041.7 530.7 1116 526C1190.3 521.3 1264.7 510.7 1339 509.3C1413.3 508 1487.7 516 1524.8 520L1562 524L1562 763L1524.8 763C1487.7 763 1413.3 763 1339 763C1264.7 763 1190.3 763 1116 763C1041.7 763 967.3 763 892.8 763C818.3 763 743.7 763 669.2 763C594.7 763 520.3 763 446 763C371.7 763 297.3 763 223 763C148.7 763 74.3 763 37.2 763L0 763Z" fill="#735091"></path><path d="M0 636L37.2 637.5C74.3 639 148.7 642 223 638C297.3 634 371.7 623 446 621.3C520.3 619.7 594.7 627.3 669.2 627.5C743.7 627.7 818.3 620.3 892.8 616.2C967.3 612 1041.7 611 1116 611.5C1190.3 612 1264.7 614 1339 615.2C1413.3 616.3 1487.7 616.7 1524.8 616.8L1562 617L1562 763L1524.8 763C1487.7 763 1413.3 763 1339 763C1264.7 763 1190.3 763 1116 763C1041.7 763 967.3 763 892.8 763C818.3 763 743.7 763 669.2 763C594.7 763 520.3 763 446 763C371.7 763 297.3 763 223 763C148.7 763 74.3 763 37.2 763L0 763Z" fill="#c65689"></path><path d="M0 665L37.2 660C74.3 655 148.7 645 223 636.5C297.3 628 371.7 621 446 622.7C520.3 624.3 594.7 634.7 669.2 639.8C743.7 645 818.3 645 892.8 648C967.3 651 1041.7 657 1116 661C1190.3 665 1264.7 667 1339 662.8C1413.3 658.7 1487.7 648.3 1524.8 643.2L1562 638L1562 763L1524.8 763C1487.7 763 1413.3 763 1339 763C1264.7 763 1190.3 763 1116 763C1041.7 763 967.3 763 892.8 763C818.3 763 743.7 763 669.2 763C594.7 763 520.3 763 446 763C371.7 763 297.3 763 223 763C148.7 763 74.3 763 37.2 763L0 763Z" fill="#f97465"></path><path d="M0 682L37.2 686.5C74.3 691 148.7 700 223 699.2C297.3 698.3 371.7 687.7 446 689.3C520.3 691 594.7 705 669.2 704C743.7 703 818.3 687 892.8 679.7C967.3 672.3 1041.7 673.7 1116 674C1190.3 674.3 1264.7 673.7 1339 672.7C1413.3 671.7 1487.7 670.3 1524.8 669.7L1562 669L1562 763L1524.8 763C1487.7 763 1413.3 763 1339 763C1264.7 763 1190.3 763 1116 763C1041.7 763 967.3 763 892.8 763C818.3 763 743.7 763 669.2 763C594.7 763 520.3 763 446 763C371.7 763 297.3 763 223 763C148.7 763 74.3 763 37.2 763L0 763Z" fill="#fbae3c"></path></svg>