<svg id="visual" viewBox="0 0 1562 1062" width="1562" height="1062" xmlns="http://www.w3.org/2000/svg" xmlns:xlink="http://www.w3.org/1999/xlink" version="1.1"><rect x="0" y="0" width="1562" height="1062" fill="#074574"></rect><defs><linearGradient id="grad1_0" x1="32%" y1="100%" x2="100%" y2="0%"><stop offset="20.583804143126176%" stop-color="#074574" stop-opacity="1"></stop><stop offset="79.41619585687383%" stop-color="#074574" stop-opacity="1"></stop></linearGradient></defs><defs><linearGradient id="grad2_0" x1="0%" y1="100%" x2="68%" y2="0%"><stop offset="20.583804143126176%" stop-color="#074574" stop-opacity="1"></stop><stop offset="79.41619585687383%" stop-color="#074574" stop-opacity="1"></stop></linearGradient></defs><g transform="translate(1562, 1062)"><path d="M-566.6 0C-560.7 -58.1 -554.8 -116.2 -538.9 -175.1C-523 -234.1 -497.2 -293.9 -449 -326.2C-400.8 -358.6 -330.3 -363.4 -279.8 -385.1C-229.3 -406.8 -198.7 -445.3 -155.4 -478.4C-112.1 -511.4 -56.1 -539 0 -566.6L0 0Z" fill="#FBAE3C"></path></g><g transform="translate(0, 0)"><path d="M566.6 0C573 68.2 579.4 136.4 538.9 175.1C498.5 213.8 411.2 223 373.8 271.6C336.3 320.1 348.8 407.9 315.1 433.6C281.3 459.3 201.4 422.8 141.2 434.6C81 446.4 40.5 506.5 0 566.6L0 0Z" fill="#FBAE3C"></path></g></svg>